{"accessors":[{"bufferView":0,"componentType":5123,"count":24192,"max":[4164],"min":[0],"type":"SCALAR"},{"bufferView":1,"componentType":5126,"count":4165,"max":[5.025529384613037,0.15680846571922302,4.925978183746338],"min":[-3.472843647003174,-5.8409295082092285,-0.6104515790939331],"type":"VEC3"},{"bufferView":2,"componentType":5126,"count":4165,"max":[0.9984740614891052,0.999755859375,0.99951171875],"min":[-0.9970396757125854,-0.9996337890625,-0.999420166015625],"type":"VEC3"},{"bufferView":3,"componentType":5126,"count":4165,"max":[17.976858139038086,5.4123148918151855],"min":[-16.976858139038086,-4.4123148918151855],"type":"VEC2"},{"bufferView":4,"componentType":5125,"count":3317760,"max":[729551],"min":[0],"type":"SCALAR"},{"bufferView":5,"componentType":5126,"count":729552,"max":[16.110164642333984,16.285417556762695,18.68992805480957],"min":[-15.061736106872559,-17.625408172607422,-14.02724838256836],"type":"VEC3"},{"bufferView":6,"componentType":5126,"count":729552,"max":[0.999969482421875,0.999969482421875,0.999969482421875],"min":[-0.999969482421875,-0.999969482421875,-0.999969482421875],"type":"VEC3"},{"bufferView":7,"componentType":5126,"count":729552,"max":[0.8750001192092896,1.0],"min":[0.1250000149011612,-1.1920928955078125e-07],"type":"VEC2"},{"bufferView":8,"componentType":5125,"count":248508,"max":[166143],"min":[0],"type":"SCALAR"},{"bufferView":9,"componentType":5126,"count":166144,"max":[9.041813850402832,36.1916389465332,20.141483306884766],"min":[-14.445810317993164,-5.81748104095459,-9.644092559814453],"type":"VEC3"},{"bufferView":10,"componentType":5126,"count":166144,"max":[0.9999473690986633,1.0,0.9999222159385681],"min":[-0.999944269657135,-1.0,-0.9999222755432129],"type":"VEC3"},{"bufferView":11,"componentType":5126,"count":166144,"max":[1.000000238418579,1.0],"min":[0.0,0.0],"type":"VEC2"}],"asset":{"generator":"Soft8Soft Verge3D for Blender add-on","version":"2.0"},"bufferViews":[{"buffer":0,"byteLength":48384,"byteOffset":0,"target":34963},{"buffer":0,"byteLength":49980,"byteOffset":48384,"target":34962},{"buffer":0,"byteLength":49980,"byteOffset":98364,"target":34962},{"buffer":0,"byteLength":33320,"byteOffset":148344,"target":34962},{"buffer":0,"byteLength":13271040,"byteOffset":181664,"target":34963},{"buffer":0,"byteLength":8754624,"byteOffset":13452704,"target":34962},{"buffer":0,"byteLength":8754624,"byteOffset":22207328,"target":34962},{"buffer":0,"byteLength":5836416,"byteOffset":30961952,"target":34962},{"buffer":0,"byteLength":994032,"byteOffset":36798368,"target":34963},{"buffer":0,"byteLength":1993728,"byteOffset":37792400,"target":34962},{"buffer":0,"byteLength":1993728,"byteOffset":39786128,"target":34962},{"buffer":0,"byteLength":1329152,"byteOffset":41779856,"target":34962}],"buffers":[{"byteLength":43109008,"uri":"spliceosome.bin"}],"cameras":[{"extensions":{"S8S_v3d_camera_data":{"controls":"ORBIT","enablePan":true,"moveSpeed":1.0,"orbitMaxDistance":100.0,"orbitMaxPolarAngle":3.1415927410125732,"orbitMaxZoom":100.0,"orbitMinDistance":0.0,"orbitMinPolarAngle":0.0,"orbitMinZoom":0.009999999776482582,"orbitTarget":[0.0,0.0,-0.0],"rotateSpeed":1.0,"viewportFitInitialAspect":1.34680133382751,"viewportFitType":"AUTO"}},"name":"Camera","perspective":{"aspectRatio":1.34680133382751,"yfov":0.6544524004367678,"zfar":100.0,"znear":0.10000000149011612},"type":"perspective"}],"extensions":{"S8S_v3d_data":{"lights":[{"color":[1.0,1.0,1.0],"intensity":4.269999980926514,"name":"Sun","profile":"blender","shadow":{"bias":-0.0018,"cameraFar":100,"cameraFov":0,"cameraNear":0.1,"csm":{"maxDistance":200.0},"enabled":true,"expBias":2.5,"mapSize":1024,"radius":1.0,"slopeScaledBias":2.5},"type":"directional"},{"color":[1.0,1.0,1.0],"intensity":1.8299999237060547,"name":"Sun.001","profile":"blender","shadow":{"bias":-0.0018,"cameraFar":100,"cameraFov":0,"cameraNear":0.1,"csm":{"maxDistance":200.0},"enabled":true,"expBias":2.5,"mapSize":1024,"radius":1.0,"slopeScaledBias":2.5},"type":"directional"}]}},"extensionsUsed":["S8S_v3d_texture_data","S8S_v3d_material_data","S8S_v3d_camera_data","S8S_v3d_data","S8S_v3d_mesh_data","S8S_v3d_node_data","S8S_v3d_scene_data"],"images":[{"uri":"TexturesCom_Asphalt_2x2_1K_height.png"},{"uri":"environment.hdr"}],"materials":[{"extensions":{"S8S_v3d_material_data":{"nodeGraph":{"edges":[{"fromNode":0,"fromOutput":0,"toInput":0,"toNode":1},{"fromNode":3,"fromOutput":0,"toInput":0,"toNode":0},{"fromNode":2,"fromOutput":0,"toInput":2,"toNode":1},{"fromNode":3,"fromOutput":0,"toInput":0,"toNode":2}],"nodes":[{"inputs":[[0.800000011920929,0.800000011920929,0.800000011920929,1.0],1.0,[1.0,0.20000000298023224,0.10000000149011612],[0.24786584079265594,0.14696478843688965,0.03701550140976906,1.0],0.040909089148044586,0.5,0.0,0.5954545736312866,0.0,0.0,0.0,0.5,0.0,0.029999999329447746,1.4500000476837158,0.0,0.0,[0.0,0.0,0.0,1.0],1.0,[0.0,0.0,0.0],[0.0,0.0,0.0],[0.0,0.0,0.0]],"is_active_output":false,"name":"Principled BSDF","outputs":[[0,0,0,0]],"type":"BSDF_PRINCIPLED_BL"},{"inputs":[[0,0,0,0],[0,0,0,0],[0.0,0.0,0.0]],"is_active_output":true,"name":"Material Output","outputs":[],"type":"OUTPUT_MATERIAL_BL"},{"inputs":[0.0,0.5,1.0,[0.0,0.0,0.0]],"is_active_output":false,"name":"Displacement","outputs":[[0.0,0.0,0.0]],"type":"DISPLACEMENT_BL"},{"inputs":[[0.0,0.0,0.0]],"is_active_output":false,"name":"Image Texture","outputs":[[0.0,0.0,0.0,0.0],0.0],"projection":"FLAT","projectionBlend":0.0,"texture":0,"type":"TEX_IMAGE_BL"}]},"useCastShadows":true}},"name":"Material.001"},{"extensions":{"S8S_v3d_material_data":{"nodeGraph":{"edges":[{"fromNode":0,"fromOutput":0,"toInput":0,"toNode":1},{"fromNode":3,"fromOutput":3,"toInput":0,"toNode":2},{"fromNode":2,"fromOutput":0,"toInput":0,"toNode":4},{"fromNode":4,"fromOutput":0,"toInput":2,"toNode":1}],"nodes":[{"inputs":[[0.03166522458195686,0.35058456659317017,0.0720185786485672,1.0],0.0,[1.0,0.20000000298023224,0.10000000149011612],[0.800000011920929,0.800000011920929,0.800000011920929,1.0],0.0,0.5,0.0,0.5,0.0,0.0,0.0,0.5,0.0,0.029999999329447746,1.4500000476837158,0.0,0.0,[0.0,0.0,0.0,1.0],1.0,[0.0,0.0,0.0],[0.0,0.0,0.0],[0.0,0.0,0.0]],"is_active_output":false,"name":"Principled BSDF","outputs":[[0,0,0,0]],"type":"BSDF_PRINCIPLED_BL"},{"inputs":[[0,0,0,0],[0,0,0,0],[0.0,0.0,0.0]],"is_active_output":true,"name":"Material Output","outputs":[],"type":"OUTPUT_MATERIAL_BL"},{"dispersionFactor":1.0,"falloffFactor":0.0,"inputs":[[0.0,0.0,0.0],0.0,5.800000190734863,4.099999904632568,0.0],"is_active_output":false,"name":"Noise Texture","outputs":[0.0,[0.0,0.0,0.0,0.0]],"type":"TEX_NOISE_BL"},{"inputs":[],"is_active_output":false,"name":"Texture Coordinate","object":-1,"outputs":[[0.0,0.0,0.0],[0.0,0.0,0.0],[0.0,0.0,0.0],[0.0,0.0,0.0],[0.0,0.0,0.0],[0.0,0.0,0.0],[0.0,0.0,0.0]],"type":"TEX_COORD_BL"},{"inputs":[0.0,0.5,0.19999992847442627,[0.0,0.0,0.0]],"is_active_output":false,"name":"Displacement","outputs":[[0.0,0.0,0.0]],"type":"DISPLACEMENT_BL"}]},"useCastShadows":true}},"name":"Material.004"},{"extensions":{"S8S_v3d_material_data":{"nodeGraph":{"edges":[{"fromNode":0,"fromOutput":0,"toInput":0,"toNode":1},{"fromNode":4,"fromOutput":0,"toInput":1,"toNode":2},{"fromNode":3,"fromOutput":0,"toInput":0,"toNode":2},{"fromNode":2,"fromOutput":0,"toInput":0,"toNode":0}],"nodes":[{"inputs":[[0.05087608844041824,0.05087608844041824,0.05087608844041824,1.0],1.0],"is_active_output":false,"name":"Background","outputs":[[0,0,0,0]],"type":"BACKGROUND_BL"},{"inputs":[[0,0,0,0],[0,0,0,0]],"is_active_output":true,"name":"World Output","outputs":[],"type":"OUTPUT_WORLD_BL"},{"blendType":"MIX","inputs":[0.5,[0.5,0.5,0.5,1.0],[0.05126946419477463,0.05126946419477463,0.05126946419477463,1.0]],"is_active_output":false,"name":"Mix","outputs":[[0.0,0.0,0.0,0.0]],"type":"MIX_RGB_BL","useClamp":false},{"inputs":[],"is_active_output":false,"name":"Light Path","outputs":[0.0,0.0,0.0,0.0,0.0,0.0,0.0,0.0,0.0,0.0,0.0,0.0,0.0],"type":"LIGHT_PATH_BL"},{"inputs":[[0.0,0.0,0.0]],"is_active_output":false,"name":"Environment Texture","outputs":[[0.0,0.0,0.0,0.0]],"projection":"EQUIRECTANGULAR","texture":1,"type":"TEX_ENVIRONMENT_BL"}]},"useCastShadows":true}},"name":"Verge3D_Environment_World"}],"meshes":[{"extensions":{"S8S_v3d_mesh_data":{"colorLayers":{},"uvLayers":{"UVMap":"TEXCOORD_0"}}},"name":"BezierCurve.001","primitives":[{"attributes":{"NORMAL":2,"POSITION":1,"TEXCOORD_0":3},"indices":0,"material":1,"mode":4}]},{"extensions":{"S8S_v3d_mesh_data":{"colorLayers":{},"uvLayers":{"UVMap":"TEXCOORD_0"}}},"name":"Cube.030","primitives":[{"attributes":{"NORMAL":6,"POSITION":5,"TEXCOORD_0":7},"indices":4,"material":0,"mode":4}]},{"extensions":{"S8S_v3d_mesh_data":{"colorLayers":{},"uvLayers":{"UVMap":"TEXCOORD_0"}}},"name":"Cylinder.061","primitives":[{"attributes":{"NORMAL":10,"POSITION":9,"TEXCOORD_0":11},"indices":8,"material":1,"mode":4}]}],"nodes":[{"extensions":{"S8S_v3d_node_data":{"frustumCulling":true,"groupNames":[],"hidden":false,"light":1,"renderOrder":0}},"name":"Sun.001","rotation":[0.013478639535605907,-0.16110605001449585,0.540692925453186,0.8255388140678406],"scale":[2.8066318035125732,2.806631565093994,2.8066318035125732],"translation":[-12.300280570983887,28.533329010009766,28.847450256347656]},{"extensions":{"S8S_v3d_node_data":{"frustumCulling":true,"groupNames":[],"hidden":false,"renderOrder":0,"useShadows":true}},"mesh":1,"name":"4","rotation":[-0.6396694779396057,0.04244811087846756,0.7672320604324341,0.019395938143134117],"scale":[0.6839866638183594,0.6839866638183594,0.6839867234230042],"translation":[-4.41972017288208,35.60769271850586,-5.994777202606201]},{"extensions":{"S8S_v3d_node_data":{"frustumCulling":true,"groupNames":[],"hidden":false,"renderOrder":0,"useShadows":true}},"mesh":2,"name":"4 Нуклеотид","rotation":[-0.0018365982687100768,0.9320071935653687,0.025432566180825233,0.3615418076515198],"scale":[0.4975384473800659,0.3198827803134918,0.4975384771823883],"translation":[-6.676387786865234,31.244735717773438,-5.891740798950195]},{"extensions":{"S8S_v3d_node_data":{"frustumCulling":true,"groupNames":[],"hidden":false,"light":0,"renderOrder":0}},"name":"Sun","rotation":[0.8604979515075684,-0.40606775879859924,0.23507699370384216,0.19847187399864197],"scale":[2.8066318035125732,2.8066318035125732,2.8066318035125732],"translation":[13.301708221435547,15.40762996673584,-40.68791580200195]},{"camera":0,"extensions":{"S8S_v3d_node_data":{"frustumCulling":true,"groupNames":["Collection 1"],"hidden":false,"renderOrder":0}},"name":"Camera","rotation":[-0.14512185752391815,0.4562240540981293,0.07569321244955063,0.8746828436851501],"scale":[0.9999999403953552,0.9999998807907104,0.9999998807907104],"translation":[25.931148529052734,48.30810546875,14.722917556762695]},{"extensions":{"S8S_v3d_node_data":{"frustumCulling":true,"groupNames":[],"hidden":false,"renderOrder":0,"useShadows":true}},"mesh":0,"name":"4 Основание","scale":[-1.9718577861785889,-1.9718577861785889,-1.9718577861785889],"translation":[-3.2061386108398438,29.438941955566406,-3.2723851203918457]}],"samplers":[{}],"scene":0,"scenes":[{"extensions":{"S8S_v3d_scene_data":{"aaMethod":"AUTO","iblEnvironmentMode":"PMREM","physicallyCorrectLights":true,"pmremMaxTileSize":256,"shadowMap":{"esmDistanceScale":1.0,"renderReverseSided":false,"renderSingleSided":true,"type":"PCFPOISSON"},"worldMaterial":2}},"extras":{"animFrameRate":30,"coordSystem":"Z_UP_RIGHT"},"name":"Scene","nodes":[1,2,5,3,0,4]}],"textures":[{"extensions":{"S8S_v3d_texture_data":{"colorSpace":"srgb"}},"name":"TexturesCom_Asphalt_2x2_1K_height.tif","sampler":0,"source":0},{"extensions":{"S8S_v3d_texture_data":{"colorSpace":"linear"}},"name":"environment.hdr","sampler":0,"source":1}]}
